<?xml version="1.0" standalone="no"?>
<!DOCTYPE svg PUBLIC "-//W3C//DTD SVG 20010904//EN"
 "http://www.w3.org/TR/2001/REC-SVG-20010904/DTD/svg10.dtd">
<svg version="1.0" xmlns="http://www.w3.org/2000/svg"
 width="256.000000pt" height="84.000000pt" viewBox="0 0 256.000000 84.000000"
 preserveAspectRatio="xMidYMid meet">

<g transform="translate(0.000000,84.000000) scale(0.100000,-0.100000)"
fill="#000000" stroke="none">
<path d="M99 800 c-37 -20 -69 -76 -69 -122 0 -46 42 -109 116 -171 92 -78
122 -131 105 -187 -17 -59 -77 -88 -143 -70 -43 12 -68 39 -78 82 l-7 33 -8
-47 c-9 -59 -3 -75 32 -89 44 -17 158 -7 190 17 44 33 66 70 70 121 7 72 -20
119 -117 199 -45 37 -88 80 -96 96 -36 70 18 144 99 134 48 -5 87 -31 87 -56
0 -11 5 -20 10 -20 6 0 10 20 10 44 0 37 -4 45 -22 50 -48 12 -143 5 -179 -14z"/>
<path d="M1253 800 c-89 -54 -94 -160 -9 -243 23 -23 67 -65 98 -94 62 -57 76
-93 58 -147 -17 -52 -55 -72 -133 -68 -37 2 -87 52 -88 89 -1 17 -5 8 -11 -26
-14 -76 -2 -86 107 -86 69 0 88 4 112 21 72 53 93 136 53 214 -12 23 -54 67
-100 106 -45 37 -88 80 -96 96 -19 38 -12 88 17 114 44 40 169 13 169 -36 0
-10 5 -22 10 -25 6 -4 10 13 10 43 0 58 -7 62 -105 62 -42 0 -70 -6 -92 -20z"/>
<path d="M330 800 c0 -7 145 -10 415 -10 270 0 415 3 415 10 0 7 -145 10 -415
10 -270 0 -415 -3 -415 -10z"/>
<path d="M1500 800 c0 -7 182 -10 525 -10 343 0 525 3 525 10 0 7 -182 10
-525 10 -343 0 -525 -3 -525 -10z"/>
<path d="M2267 703 c-9 -21 -51 -126 -93 -233 -41 -107 -83 -203 -91 -212 -10
-11 -31 -18 -55 -18 -32 0 -40 4 -48 26 -6 14 -10 115 -10 224 0 184 1 201 19
217 19 18 18 18 -55 19 -40 0 -74 -1 -74 -3 0 -2 11 -8 25 -13 24 -9 25 -13
25 -100 l0 -90 -145 0 -145 0 0 89 c0 79 2 90 21 102 18 13 11 14 -63 15 -64
0 -77 -2 -56 -10 35 -12 38 -33 38 -230 0 -196 -6 -235 -34 -246 -14 -6 10 -9
69 -8 50 0 81 3 70 5 -41 10 -45 21 -45 139 l0 114 145 0 145 0 0 -114 c0
-107 -1 -116 -22 -130 -21 -15 -11 -16 132 -16 132 0 151 2 135 14 -18 13 -16
20 38 167 30 85 59 167 62 182 12 47 22 40 51 -35 15 -40 46 -122 70 -183 24
-60 44 -117 44 -127 0 -16 9 -18 68 -18 64 1 66 1 37 14 -16 8 -35 22 -42 33
-6 11 -50 116 -98 234 -48 118 -90 218 -94 222 -4 4 -15 -9 -24 -30z"/>
<path d="M340 722 c0 -1 11 -7 25 -12 l25 -10 0 -219 c0 -216 0 -220 -22 -235
-21 -15 -4 -16 197 -15 121 1 212 3 203 6 -28 7 -22 37 40 208 33 88 61 167
64 175 7 18 7 17 93 -203 36 -93 62 -173 59 -178 -3 -5 26 -8 68 -8 40 1 63 4
52 6 -40 8 -64 49 -153 268 -49 121 -95 220 -101 220 -6 0 -52 -103 -101 -230
-86 -222 -104 -255 -139 -255 -12 0 -15 8 -12 37 3 36 3 37 -10 14 -15 -29
-67 -45 -116 -37 -57 9 -62 18 -62 127 l0 99 58 0 c62 0 73 -5 89 -34 9 -16
11 -12 14 27 4 42 2 46 -16 42 -11 -3 -47 -6 -80 -8 l-60 -2 -3 98 -3 97 44 0
c64 0 107 -10 107 -26 0 -31 18 -20 21 14 l4 37 -142 0 c-79 0 -143 -1 -143
-3z"/>
<path d="M188 184 c-11 -11 -10 -122 1 -129 6 -3 11 12 13 32 2 30 7 38 23 38
16 0 21 -8 23 -38 4 -42 22 -41 22 1 0 40 -14 55 -43 50 -23 -4 -26 -1 -29 24
-2 17 -6 26 -10 22z"/>
<path d="M430 126 c0 -70 17 -100 22 -39 2 30 7 38 23 38 16 0 21 -8 23 -38 4
-42 22 -41 22 2 0 34 -22 55 -50 48 -17 -4 -20 0 -20 24 0 16 -4 29 -10 29 -6
0 -10 -28 -10 -64z"/>
<path d="M700 120 c0 -40 4 -70 10 -70 6 0 10 30 10 70 0 40 -4 70 -10 70 -6
0 -10 -30 -10 -70z"/>
<path d="M300 169 c0 -5 5 -7 10 -4 6 3 10 8 10 11 0 2 -4 4 -10 4 -5 0 -10
-5 -10 -11z"/>
<path d="M1374 165 c-4 -8 -3 -22 0 -30 3 -9 -1 -18 -9 -21 -18 -7 -20 -35 -3
-52 15 -15 60 -16 76 0 8 8 15 8 27 -2 8 -7 19 -10 22 -6 4 4 1 11 -7 16 -11
7 -12 14 -2 34 7 16 8 28 2 31 -6 4 -10 0 -10 -7 0 -7 -4 -19 -9 -27 -8 -12
-16 -10 -46 13 -41 32 -41 48 1 57 l29 7 -33 1 c-21 1 -35 -4 -38 -14z m46
-74 l25 -19 -28 -7 c-31 -8 -59 9 -50 31 7 19 23 17 53 -5z"/>
<path d="M1822 144 c-7 -8 -8 -14 -3 -14 5 0 11 -17 13 -37 2 -29 8 -39 23
-41 18 -2 18 -2 3 8 -11 6 -18 23 -18 40 0 22 5 30 18 31 13 0 14 2 2 6 -8 3
-17 9 -20 13 -3 4 -11 2 -18 -6z"/>
<path d="M2428 149 c-2 -7 -1 -30 2 -53 4 -35 9 -41 30 -43 14 -1 18 0 8 3
-13 4 -18 16 -18 39 0 24 5 35 18 38 16 4 16 5 0 6 -10 0 -18 6 -18 11 0 14
-17 13 -22 -1z"/>
<path d="M95 130 c-8 -13 13 -40 31 -40 8 0 14 -7 14 -16 0 -12 -7 -15 -25
-12 -14 3 -25 1 -25 -4 0 -5 15 -8 32 -6 42 4 50 33 14 49 -34 16 -33 27 2 32
26 4 25 4 -5 6 -17 0 -35 -4 -38 -9z"/>
<path d="M303 95 c0 -27 2 -38 4 -22 2 15 2 37 0 50 -2 12 -4 0 -4 -28z"/>
<path d="M345 130 c-8 -13 13 -40 31 -40 8 0 14 -7 14 -16 0 -12 -7 -15 -25
-12 -14 3 -25 1 -25 -4 0 -5 15 -8 32 -6 42 4 50 33 14 49 -32 15 -33 26 -3
32 19 4 19 4 -5 6 -15 0 -30 -4 -33 -9z"/>
<path d="M552 128 c-16 -16 -15 -53 1 -67 7 -6 28 -9 45 -8 31 2 32 4 32 45 0
41 -1 42 -33 42 -18 0 -38 -5 -45 -12z m56 -30 c-2 -25 -8 -33 -23 -33 -20 0
-31 25 -21 51 3 8 15 14 26 14 18 0 21 -5 18 -32z"/>
<path d="M756 124 c-9 -8 -16 -22 -16 -29 0 -18 28 -45 46 -45 45 0 71 49 42
78 -17 17 -54 15 -72 -4z m59 -29 c0 -23 -5 -30 -19 -30 -24 0 -41 27 -33 49
4 11 15 16 29 14 18 -2 23 -9 23 -33z"/>
<path d="M868 115 c-9 -45 6 -65 47 -62 34 2 35 3 35 45 0 52 -18 56 -22 5 -2
-30 -7 -38 -23 -38 -16 0 -21 8 -25 40 -5 39 -6 39 -12 10z"/>
<path d="M980 92 c0 -26 4 -41 10 -37 6 3 10 20 10 36 0 17 6 32 15 36 21 7
27 0 36 -44 l7 -38 -1 45 c-2 45 -2 45 -39 45 l-38 1 0 -44z"/>
<path d="M1102 128 c-30 -30 -2 -86 38 -73 11 3 20 2 20 -3 0 -17 -30 -34 -50
-29 -11 3 -20 1 -20 -4 0 -16 57 -10 71 7 7 9 14 38 14 65 0 48 -1 49 -30 49
-17 0 -36 -5 -43 -12z m58 -22 c0 -33 -25 -53 -45 -36 -18 15 -19 32 -3 48 21
21 48 14 48 -12z"/>
<path d="M1212 128 c-28 -28 -1 -78 44 -78 13 0 24 5 24 11 0 5 -5 7 -10 4
-20 -13 -50 6 -50 31 0 27 21 41 42 28 9 -6 6 -10 -12 -15 -23 -6 -22 -7 8 -8
34 -1 40 7 20 27 -15 15 -51 15 -66 0z"/>
<path d="M1560 92 c0 -26 4 -41 10 -37 6 3 10 19 10 35 0 17 7 33 17 39 14 7
12 9 -10 8 -25 -2 -27 -5 -27 -45z"/>
<path d="M1630 119 c-9 -16 -8 -26 5 -45 16 -25 58 -33 70 -14 4 7 -2 9 -17 5
-15 -4 -29 -1 -36 7 -17 21 -8 53 16 56 26 4 30 -15 5 -21 -11 -3 -7 -5 10 -6
29 -1 34 8 15 27 -19 19 -56 14 -68 -9z"/>
<path d="M1734 128 c-4 -6 4 -20 19 -33 34 -26 34 -39 2 -33 -14 3 -25 1 -25
-3 0 -13 44 -11 58 3 18 18 15 27 -13 38 -31 12 -32 27 -2 33 19 4 19 4 -5 6
-15 0 -30 -4 -34 -11z"/>
<path d="M1906 124 c-19 -18 -20 -28 -6 -55 8 -14 20 -18 45 -16 34 2 35 3 35
45 0 40 -1 42 -29 42 -16 0 -37 -7 -45 -16z m62 -20 c4 -25 -22 -49 -43 -40
-15 5 -21 47 -8 60 14 14 48 1 51 -20z"/>
<path d="M2010 106 c0 -41 16 -56 55 -52 26 3 30 8 33 36 2 18 -1 37 -7 43 -8
8 -11 1 -11 -25 0 -24 -5 -38 -16 -42 -24 -9 -34 2 -34 40 0 19 -4 34 -10 34
-5 0 -10 -15 -10 -34z"/>
<path d="M2132 90 c1 -36 2 -39 5 -13 3 19 14 39 26 48 22 15 22 15 -6 13 -25
-2 -27 -5 -25 -48z"/>
<path d="M2206 124 c-35 -35 -11 -75 42 -71 31 2 32 4 32 45 0 40 -1 42 -29
42 -16 0 -37 -7 -45 -16z m52 -26 c-2 -25 -8 -33 -23 -33 -20 0 -31 25 -21 51
3 8 15 14 26 14 18 0 21 -5 18 -32z"/>
<path d="M2310 93 c0 -53 18 -57 22 -5 2 29 7 37 23 37 16 0 21 -9 26 -40 7
-44 9 -44 14 0 5 39 -10 55 -51 53 -33 -1 -34 -2 -34 -45z"/>
</g>
</svg>
