<?xml version="1.0" encoding="utf-8"?>
<!-- Generator: Adobe Illustrator 25.4.1, SVG Export Plug-In . SVG Version: 6.00 Build 0)  -->
<svg version="1.1" id="katman_1" xmlns="http://www.w3.org/2000/svg" xmlns:xlink="http://www.w3.org/1999/xlink" x="0px" y="0px"
	 viewBox="0 0 602.9 175.8" style="enable-background:new 0 0 602.9 175.8;" xml:space="preserve">
<style type="text/css">
	.st0{fill:#9B4593;}
	.st1{fill:#FED929;}
	.st2{fill:#3C3C3B;}
	.st3{fill:#EE753E;}
	.st4{fill:url(#SVGID_1_);}
	.st5{fill:#75A32D;}
</style>
<path class="st0" d="M100.3,61h49c0,0-23.7,47.7-25.7,52.4C123.6,113.4,98.8,66.1,100.3,61z"/>
<path class="st1" d="M28.2,61h49c0,0-23.8,47.7-25.8,52.4C51.4,113.4,26.8,66.1,28.2,61z"/>
<g>
	<path class="st2" d="M252.9,119.1v-6.3c-7.9,5.3-17.6,8-29,8c-12.6,0-22.6-2.8-30.1-8.5c-8.1-6.2-12.2-14.9-12.2-26.3V28.5h17.8
		v57.3c0,12.8,8.2,19.2,24.6,19.2c19.4,0,29-9.3,29-27.9V28.5h17.8v90.6H252.9z"/>
	<path class="st2" d="M358.9,113.9c-8.1,4.6-17.8,6.8-28.9,6.8c-15.7,0-28.2-4.2-37.5-12.6s-14-19.4-14-33.1
		c0-14.5,4.8-26.3,14.3-35.3s22.6-13.5,39.3-13.5c10.1,0,19,2.2,26.6,6.5c8.5,4.8,14.5,13.2,18.1,25.3l-16.3,7.4
		c-2.5-8.9-5.9-15-10.3-18.4s-10.6-5.1-18.6-5.1c-11.3,0-20.1,3-26.2,9.1c-6.1,6-9.1,14-9.1,24c0,9.2,2.8,16.5,8.5,21.6
		c5.9,5.5,14.2,8.3,25,8.3c7.5,0,14-1.6,19.5-4.7s9.3-10,11.6-20.6l17,6.7C374.5,99.5,368.1,108.6,358.9,113.9z"/>
	<path class="st2" d="M384.9,118.8v-94h17.8v93.9h-17.8V118.8z"/>
	<path class="st2" d="M409,118.8v-12.6l61.4-62h-55.8V28.5H497v12.4L435.6,103h64.5v15.7L409,118.8L409,118.8z"/>
	<path class="st2" d="M518.8,80.7c2.1,16.3,12.9,24.4,32.5,24.4c16,0,26.8-6.7,32.4-20.2H602c-5.2,14.9-12.5,24.8-22,29.6
		c-8.3,4.2-17.9,6.3-29,6.3c-16.4,0-29-4.4-37.7-13.1c-8.4-8.3-12.6-19.5-12.6-33.8c0-13.7,4.6-25,13.9-34
		c9.2-9,21.7-13.5,37.3-13.5c15.3,0,27.6,4,37,12S603,57.1,603,70.6v10L518.8,80.7z M575.6,50c-5.7-5.3-13.6-8-23.7-8
		s-18.1,2.6-23.8,8c-4.4,4.1-7.3,9.1-8.7,15h64.3C582.6,59,579.9,54,575.6,50z"/>
</g>
<polygon class="st3" points="51.4,61 30.8,25.9 0,25.9 51.4,113.4 "/>
<polygon class="st1" points="51.4,61 51.4,113.4 87.5,52.1 72.1,25.9 "/>
<linearGradient id="SVGID_1_" gradientUnits="userSpaceOnUse" x1="83.6908" y1="141.8201" x2="142.5206" y2="71.0072" gradientTransform="matrix(1 0 0 -1 0 175.89)">
	<stop  offset="1.380000e-02" style="stop-color:#342358"/>
	<stop  offset="0.4825" style="stop-color:#754796"/>
</linearGradient>
<polygon class="st4" points="123.6,61 102.9,25.9 72.1,25.9 123.6,113.4 "/>
<polygon class="st0" points="123.6,61 123.6,113.4 175,25.9 144.2,25.9 "/>
<polygon class="st5" points="72.1,25.9 87.5,52.1 102.9,25.9 "/>
<polygon class="st1" points="406.6,0 393.8,18.2 381,0 "/>
<g>
	<path d="M270.2,169.1l-10.4-11.2l-4.8,3.5v7.7h-1.4V142h1.4v17.7l14.1-10.3h2.6l-10.8,7.6l11.2,12.1H270.2z"/>
	<path d="M278.3,153.9c0.4-1,1.1-1.8,2-2.6c1.7-1.4,3.9-2.1,6.5-2.1v1.3c-3.1,0-5.3,1.2-6.8,3.5c-1.2,1.9-1.8,4.4-1.8,7.4v7.8h-1.4
		v-19.5h1.4L278.3,153.9L278.3,153.9z"/>
	<path d="M291.7,159.8c0.2,5.6,2.9,8.4,8.3,8.4c1.8,0,3.4-0.4,4.8-1.2s2.4-2,3-3.6h1.5c-0.7,2.2-1.9,3.8-3.7,4.8
		c-1.6,0.9-3.5,1.4-5.7,1.4c-3.2,0-5.6-0.9-7.3-2.8c-1.5-1.8-2.3-4.2-2.3-7.4c0-3,0.9-5.5,2.7-7.4s4.2-2.9,7.2-2.9s5.4,0.9,7.2,2.6
		s2.7,4,2.7,7v1.1L291.7,159.8z M300.1,150.5c-2.5,0-4.4,0.7-5.9,2.2s-2.3,3.4-2.5,5.9h16.6c0-2.5-0.8-4.4-2.3-5.9
		S302.5,150.5,300.1,150.5z"/>
	<path d="M331.3,169.1v-4.4c-1.7,3.2-4.5,4.8-8.4,4.8c-3,0-5.4-1-7.1-3c-1.6-1.8-2.4-4.2-2.4-7.2s0.8-5.5,2.4-7.3c1.8-2,4.2-3,7.2-3
		c3.9,0,6.7,1.6,8.3,4.7v-4.6h1.4V169h-1.4V169.1z M322.9,150.5c-2.6,0-4.6,0.9-6,2.7c-1.4,1.6-2,3.8-2,6.3c0,2.6,0.7,4.6,2,6.2
		c1.5,1.7,3.5,2.6,6.1,2.6s4.6-0.9,6.2-2.6c1.5-1.6,2.3-3.7,2.3-6.2c0-2.8-0.7-4.9-2.2-6.5S325.6,150.5,322.9,150.5z"/>
	<path d="M343,151.9v17.2h-1.4l-0.1-17.2h-4v-1.4h4v-6h1.4v6h4v1.4H343z"/>
	<path d="M352.3,145.5c-0.3,0-0.5-0.2-0.6-0.6v-2.7c0.2-0.4,0.4-0.6,0.6-0.6s0.5,0.2,0.8,0.6v2.8
		C352.8,145.4,352.5,145.5,352.3,145.5z M351.6,169.1v-19.7h1.4v19.7H351.6z"/>
	<path d="M362.3,149.9v1.6h4.4v1.4h-4.4v16.3h-1.4v-16.3H358v-1.4h2.9v-1.6c0-4.9,3.2-7.4,9.6-7.4v1.3
		C365,143.8,362.3,145.8,362.3,149.9z"/>
	<path d="M391,172.3c-0.1,0.4-0.3,0.5-0.7,0.5c-0.5,0-0.8-0.2-0.8-0.6c0,0,0-0.1,0-0.3l1.7-5.7c0.1-0.4,0.4-0.6,0.8-0.5
		c0.5,0.1,0.6,0.4,0.5,0.8L391,172.3z"/>
	<path d="M433.2,169.1l-10.4-11.2l-4.8,3.5v7.7h-1.4V142h1.4v17.7l14.1-10.3h2.6l-10.8,7.6l11.2,12.1H433.2z"/>
	<path d="M455.3,169.1v-3.5c-1.4,2.6-3.9,4-7.5,4c-2.4,0-4.4-0.6-5.8-1.8s-2.2-3-2.2-5.4v-12.8h1.4v12.7c0,2,0.6,3.4,1.7,4.4
		s2.8,1.5,4.8,1.5c2.5,0,4.4-0.8,5.7-2.3c1.2-1.4,1.8-3.3,1.8-5.8v-10.6h1.4V169h-1.3V169.1z"/>
	<path d="M464.3,153.9c0.4-1,1.1-1.8,2-2.6c1.7-1.4,3.9-2.1,6.5-2.1v1.3c-3.1,0-5.3,1.2-6.8,3.5c-1.2,1.9-1.8,4.4-1.8,7.4v7.8h-1.4
		v-19.5h1.4L464.3,153.9L464.3,153.9z"/>
	<path d="M493,169.1v-3.5c-1.4,2.6-3.9,4-7.5,4c-2.4,0-4.4-0.6-5.8-1.8s-2.2-3-2.2-5.4v-12.8h1.4v12.7c0,2,0.6,3.4,1.7,4.4
		s2.8,1.5,4.8,1.5c2.5,0,4.4-0.8,5.7-2.3c1.2-1.4,1.8-3.3,1.8-5.8v-10.6h1.4V169H493V169.1z"/>
	<path d="M527.7,169.1v-12.8c0-3.9-1.8-5.8-5.5-5.8c-2,0-3.6,0.6-4.8,1.7c-1.2,1.2-1.8,2.7-1.8,4.7v12.3h-1.4v-12.8
		c0-3.9-1.9-5.8-5.6-5.8c-2.1,0-3.8,0.8-5,2.4c-1,1.4-1.6,3.2-1.6,5.3v11h-1.4v-19.5h1.4v3.4c1.3-2.6,3.6-3.9,6.9-3.9
		c3.2,0,5.3,1.3,6.3,4c1.2-2.6,3.5-4,6.9-4c4.7,0,7,2.2,7,6.8v13.2h-1.4V169.1z"/>
	<path d="M543.1,169.7c-5.7,0-8.6-2.5-8.6-7.6h1.5c0,4.1,2.4,6.2,7.1,6.2c1.7,0,3-0.3,4.1-0.8c1.4-0.7,2.1-1.8,2.1-3.3
		c0-1.8-1.4-3.1-4.2-3.7c-0.2,0-1.5-0.3-4-0.7c-3.8-0.6-5.7-2.3-5.7-5.1c0-1.8,0.8-3.2,2.2-4.2c1.3-0.9,2.9-1.4,4.8-1.4
		c5.5,0,8.3,2.2,8.3,6.7h-1.6c0-3.5-2.2-5.3-6.6-5.3c-1.5,0-2.8,0.3-3.9,1c-1.2,0.8-1.9,1.8-1.9,3.2c0,1.8,1.4,3,4.1,3.5
		c0.7,0.1,2.1,0.4,4.2,0.8c3.8,0.7,5.6,2.4,5.6,5.2c0,2-0.8,3.4-2.6,4.4C547,169.3,545.3,169.7,543.1,169.7z"/>
	<path d="M573.4,169.1v-4.4c-1.7,3.2-4.5,4.8-8.4,4.8c-3,0-5.4-1-7.1-3c-1.6-1.8-2.4-4.2-2.4-7.2s0.8-5.5,2.4-7.3c1.8-2,4.2-3,7.2-3
		c3.9,0,6.7,1.6,8.3,4.7v-4.6h1.4V169h-1.4V169.1z M565,150.5c-2.6,0-4.6,0.9-6,2.7c-1.4,1.6-2,3.8-2,6.3c0,2.6,0.7,4.6,2,6.2
		c1.5,1.7,3.5,2.6,6.1,2.6s4.6-0.9,6.2-2.6c1.5-1.6,2.3-3.7,2.3-6.2c0-2.8-0.7-4.9-2.2-6.5C569.8,151.3,567.7,150.5,565,150.5z"/>
	<path d="M581.2,169.1V142h1.4v27.1H581.2z"/>
</g>
</svg>
